# xmcd
# 
# Track frame offsets:
#     150
#     20855
#     42192
# 
# Disc length: 835
# 
# Revision: 1
# Processed by: cddbd v1.5.2PL0 Copyright (c) Steve Scherf et al.
# Submitted via: fre:ac v1.0.17
# 
DISCID=20034103
DTITLE=中西圭三 - 眠れぬ想い
DYEAR=1993
DGENRE=J-Pop
TTITLE0=眠れぬ想い
TTITLE1=Precious Love
TTITLE2=眠れぬ想い(オリジナルカラオケ)
EXTD=
EXTT0=
EXTT1=
EXTT2=
PLAYORDER=
